{
	"asset":{
		"generator":"Khronos glTF Blender I/O v4.2.70",
		"version":"2.0"
	},
	"extensionsUsed":[
		"KHR_materials_specular"
	],
	"scene":0,
	"scenes":[
		{
			"name":"Scene",
			"nodes":[
				0
			]
		}
	],
	"nodes":[
		{
			"mesh":0,
			"name":"Rmk3",
			"rotation":[
				0.7071068286895752,
				0,
				0,
				0.7071068286895752
			]
		}
	],
	"materials":[
		{
			"doubleSided":true,
			"extensions":{
				"KHR_materials_specular":{
					"specularFactor":0
				}
			},
			"name":"Glossy_Abstract_Material",
			"pbrMetallicRoughness":{
				"baseColorFactor":[
					0.800000011920929,
					0.800000011920929,
					0.800000011920929,
					1
				],
				"metallicFactor":0
			}
		}
	],
	"meshes":[
		{
			"name":"Rmk3",
			"primitives":[
				{
					"attributes":{
						"POSITION":0,
						"NORMAL":1
					},
					"indices":2,
					"material":0
				}
			]
		}
	],
	"accessors":[
		{
			"bufferView":0,
			"componentType":5126,
			"count":2652946,
			"max":[
				481.2330017089844,
				247.54295349121094,
				1.3840349912643433
			],
			"min":[
				-51.364402770996094,
				-249.42176818847656,
				-592.5716552734375
			],
			"type":"VEC3"
		},
		{
			"bufferView":1,
			"componentType":5126,
			"count":2652946,
			"type":"VEC3"
		},
		{
			"bufferView":2,
			"componentType":5125,
			"count":2725614,
			"type":"SCALAR"
		}
	],
	"bufferViews":[
		{
			"buffer":0,
			"byteLength":31835352,
			"byteOffset":0,
			"target":34962
		},
		{
			"buffer":0,
			"byteLength":31835352,
			"byteOffset":31835352,
			"target":34962
		},
		{
			"buffer":0,
			"byteLength":10902456,
			"byteOffset":63670704,
			"target":34963
		}
	],
	"buffers":[
		{
			"byteLength":74573160,
			"uri":"bracoRobotico.bin"
		}
	]
}
