{
	"asset":{
		"generator":"Khronos glTF Blender I/O v4.2.70",
		"version":"2.0"
	},
	"extensionsUsed":[
		"KHR_materials_specular"
	],
	"scene":0,
	"scenes":[
		{
			"name":"Scene",
			"nodes":[
				0
			]
		}
	],
	"nodes":[
		{
			"mesh":0,
			"name":"skull",
			"rotation":[
				0.7071068286895752,
				0,
				0,
				0.7071068286895752
			]
		}
	],
	"materials":[
		{
			"doubleSided":true,
			"extensions":{
				"KHR_materials_specular":{
					"specularColorFactor":[
						2.0,
						2.0,
						2.0
					]
				}
			},
			"name":"Dflt0",
			"pbrMetallicRoughness":{
				"baseColorFactor":[
					0.9294120073318481,
					0.8627449870109558,
					0.7725489735603333,
					1
				],
				"metallicFactor":0,
				"roughnessFactor":0.9096331596374512
			}
		},
		{
			"doubleSided":true,
			"extensions":{
				"KHR_materials_specular":{
					"specularColorFactor":[
						2.0,
						2.0,
						2.0
					]
				}
			},
			"name":"Dflt1",
			"pbrMetallicRoughness":{
				"baseColorFactor":[
					0.9294120073318481,
					0.8627449870109558,
					0.7725489735603333,
					1
				],
				"metallicFactor":0,
				"roughnessFactor":0.9096331596374512
			}
		},
		{
			"doubleSided":true,
			"extensions":{
				"KHR_materials_specular":{
					"specularColorFactor":[
						2.0,
						2.0,
						2.0
					]
				}
			},
			"name":"Dflt2",
			"pbrMetallicRoughness":{
				"baseColorFactor":[
					0.9294120073318481,
					0.8627449870109558,
					0.7725489735603333,
					1
				],
				"metallicFactor":0,
				"roughnessFactor":0.9096331596374512
			}
		},
		{
			"doubleSided":true,
			"extensions":{
				"KHR_materials_specular":{
					"specularColorFactor":[
						2.0,
						2.0,
						2.0
					]
				}
			},
			"name":"Dflt3",
			"pbrMetallicRoughness":{
				"baseColorFactor":[
					0.9294120073318481,
					0.8627449870109558,
					0.7725489735603333,
					1
				],
				"metallicFactor":0,
				"roughnessFactor":0.9096331596374512
			}
		}
	],
	"meshes":[
		{
			"name":"skull",
			"primitives":[
				{
					"attributes":{
						"POSITION":0,
						"NORMAL":1
					},
					"indices":2,
					"material":0
				},
				{
					"attributes":{
						"POSITION":3,
						"NORMAL":4
					},
					"indices":5,
					"material":1
				},
				{
					"attributes":{
						"POSITION":6,
						"NORMAL":7
					},
					"indices":8,
					"material":2
				},
				{
					"attributes":{
						"POSITION":9,
						"NORMAL":10
					},
					"indices":11,
					"material":3
				}
			]
		}
	],
	"accessors":[
		{
			"bufferView":0,
			"componentType":5126,
			"count":8220,
			"max":[
				2.039910078048706,
				1.377020001411438,
				-1.5416699647903442
			],
			"min":[
				-3.187299966812134,
				-4.759439945220947,
				-7.317880153656006
			],
			"type":"VEC3"
		},
		{
			"bufferView":1,
			"componentType":5126,
			"count":8220,
			"type":"VEC3"
		},
		{
			"bufferView":2,
			"componentType":5123,
			"count":16602,
			"type":"SCALAR"
		},
		{
			"bufferView":3,
			"componentType":5126,
			"count":1822,
			"max":[
				0.9964969754219055,
				1.2848999500274658,
				-1.3350000381469727
			],
			"min":[
				-1.0072799921035767,
				-0.7379469871520996,
				-2.092989921569824
			],
			"type":"VEC3"
		},
		{
			"bufferView":4,
			"componentType":5126,
			"count":1822,
			"type":"VEC3"
		},
		{
			"bufferView":5,
			"componentType":5123,
			"count":3258,
			"type":"SCALAR"
		},
		{
			"bufferView":6,
			"componentType":5126,
			"count":2970,
			"max":[
				1.502210021018982,
				1.189869999885559,
				0.0009000300196930766
			],
			"min":[
				-2.1534299850463867,
				-1.765239953994751,
				-3.05676007270813
			],
			"type":"VEC3"
		},
		{
			"bufferView":7,
			"componentType":5126,
			"count":2970,
			"type":"VEC3"
		},
		{
			"bufferView":8,
			"componentType":5123,
			"count":6198,
			"type":"SCALAR"
		},
		{
			"bufferView":9,
			"componentType":5126,
			"count":1440,
			"max":[
				1.0496200323104858,
				1.2572499513626099,
				-0.9805560111999512
			],
			"min":[
				-1.1152700185775757,
				-0.6930050253868103,
				-1.6754900217056274
			],
			"type":"VEC3"
		},
		{
			"bufferView":10,
			"componentType":5126,
			"count":1440,
			"type":"VEC3"
		},
		{
			"bufferView":11,
			"componentType":5123,
			"count":2550,
			"type":"SCALAR"
		}
	],
	"bufferViews":[
		{
			"buffer":0,
			"byteLength":98640,
			"byteOffset":0,
			"target":34962
		},
		{
			"buffer":0,
			"byteLength":98640,
			"byteOffset":98640,
			"target":34962
		},
		{
			"buffer":0,
			"byteLength":33204,
			"byteOffset":197280,
			"target":34963
		},
		{
			"buffer":0,
			"byteLength":21864,
			"byteOffset":230484,
			"target":34962
		},
		{
			"buffer":0,
			"byteLength":21864,
			"byteOffset":252348,
			"target":34962
		},
		{
			"buffer":0,
			"byteLength":6516,
			"byteOffset":274212,
			"target":34963
		},
		{
			"buffer":0,
			"byteLength":35640,
			"byteOffset":280728,
			"target":34962
		},
		{
			"buffer":0,
			"byteLength":35640,
			"byteOffset":316368,
			"target":34962
		},
		{
			"buffer":0,
			"byteLength":12396,
			"byteOffset":352008,
			"target":34963
		},
		{
			"buffer":0,
			"byteLength":17280,
			"byteOffset":364404,
			"target":34962
		},
		{
			"buffer":0,
			"byteLength":17280,
			"byteOffset":381684,
			"target":34962
		},
		{
			"buffer":0,
			"byteLength":5100,
			"byteOffset":398964,
			"target":34963
		}
	],
	"buffers":[
		{
			"byteLength":404064,
			"uri":"cranio.bin"
		}
	]
}
